<svg width="444" height="516" viewBox="0 0 444 516" fill="none" xmlns="http://www.w3.org/2000/svg">
<mask id="mask0_1139_544" style="mask-type:luminance" maskUnits="userSpaceOnUse" x="0" y="0" width="444" height="516">
<path d="M444 0H0V515.806H444V0Z" fill="white"/>
</mask>
<g mask="url(#mask0_1139_544)">
<path d="M221.98 0.315918L0.261719 128.215V386.399L221.98 515.469L443.699 384.598V127.63L221.98 0.315918Z" fill="#007BB0" stroke="#007BB0" stroke-width="0.25" stroke-miterlimit="10"/>
<path d="M124.968 96.0957L26.2636 141.07C26.2636 141.07 15.3015 236.15 37.721 259.898C40.7823 263.139 47.175 157.794 47.175 157.794L124.968 96.0957Z" fill="white"/>
<path d="M406.846 256.902L413.217 378.341C413.217 378.341 342.379 425.183 310.326 418.881C305.937 418.025 391.405 360.108 391.405 360.108L406.846 256.902Z" fill="white"/>
<path d="M227.376 103.32C227.376 103.32 100.872 100.529 74.2887 229.621C47.6822 358.713 171.462 478.982 317.413 387.391C337.74 374.65 356.062 351.938 356.062 351.938L310.188 308.517C310.188 308.517 273.858 352.749 213.375 343.182C152.892 333.615 150.888 281.821 150.888 281.821L370.424 280.222C370.424 280.222 391.942 114.891 227.398 103.32H227.376Z" fill="white"/>
</g>
</svg>
